HIERARCHY
ROOT Pelvis
{
	OFFSET 0.000000 0.000000 0.000000
	CHANNELS 6 Xposition Yposition Zposition Xrotation Yrotation Zrotation
	JOINT LeftUpLeg_virtual
	{
		OFFSET 0.000000 0.000000 0.000000
		CHANNELS 3 Xrotation Yrotation Zrotation
		JOINT LeftUpLeg
		{
			OFFSET 8.479700 -4.795502 -0.379100
			CHANNELS 3 Xrotation Yrotation Zrotation
			JOINT LeftLeg
			{
				OFFSET 0.024144 -32.555107 0.112900
				CHANNELS 3 Xrotation Yrotation Zrotation
				JOINT LeftFoot
				{
					OFFSET -0.024144 -32.638630 -3.012600
					CHANNELS 3 Xrotation Yrotation Zrotation
					JOINT LeftToeBase
					{
						OFFSET 0.970200 -13.225400 11.864200
						CHANNELS 3 Xrotation Yrotation Zrotation
						End Site
						{
							OFFSET 0 0 0
						}
					}
				}
			}
		}
	}
	JOINT RightUpLeg_virtual
	{
		OFFSET 0.000000 0.000000 0.000000
		CHANNELS 3 Xrotation Yrotation Zrotation
		JOINT RightUpLeg
		{
			OFFSET -8.479700 -4.795502 -0.379100
			CHANNELS 3 Xrotation Yrotation Zrotation
			JOINT RightLeg
			{
				OFFSET -0.023144 -32.555092 0.112900
				CHANNELS 3 Xrotation Yrotation Zrotation
				JOINT RightFoot
				{
					OFFSET 0.023144 -32.638641 -3.012700
					CHANNELS 3 Xrotation Yrotation Zrotation
					JOINT RightToeBase
					{
						OFFSET -0.970200 -13.225400 11.864200
						CHANNELS 3 Xrotation Yrotation Zrotation
						End Site
						{
							OFFSET 0 0 0
						}
					}
				}
			}
		}
	}
	JOINT Hips_virtual
	{
		OFFSET 0.000000 0.000000 0.000000
		CHANNELS 3 Xrotation Yrotation Zrotation
		JOINT Hips
		{
			OFFSET -0.000000 -0.000000 -0.000000
			CHANNELS 3 Xrotation Yrotation Zrotation
			JOINT Spine
			{
				OFFSET 0.000000 7.722000 1.166200
				CHANNELS 3 Xrotation Yrotation Zrotation
				JOINT Spine1
				{
					OFFSET 0.000000 12.024101 0.248800
					CHANNELS 3 Xrotation Yrotation Zrotation
					JOINT Spine2
					{
						OFFSET 0.000000 11.502998 -0.491200
						CHANNELS 3 Xrotation Yrotation Zrotation
						JOINT Neck_virtual
						{
							OFFSET 0.000000 0.000000 0.000000
							CHANNELS 3 Xrotation Yrotation Zrotation
							JOINT Neck
							{
								OFFSET 0.000000 18.430702 -3.123100
								CHANNELS 3 Xrotation Yrotation Zrotation
								JOINT Head
								{
									OFFSET 0.000000 9.051102 1.034000
									CHANNELS 3 Xrotation Yrotation Zrotation
									End Site
									{
										OFFSET 0 0 0
									}
								}
							}
						}
						JOINT LeftShoulder_virtual
						{
							OFFSET 0.000000 0.000000 0.000000
							CHANNELS 3 Xrotation Yrotation Zrotation
							JOINT LeftShoulder
							{
								OFFSET 6.197800 13.665199 -4.064700
								CHANNELS 3 Xrotation Yrotation Zrotation
								JOINT LeftArm
								{
									OFFSET 7.778100 -0.187103 -1.709300
									CHANNELS 3 Xrotation Yrotation Zrotation
									JOINT LeftForeArm
									{
										OFFSET 22.049376 0.000000 0.000000
										CHANNELS 3 Xrotation Yrotation Zrotation
										JOINT LeftHand
										{
											OFFSET 23.009392 0.000000 0.000000
											CHANNELS 3 Xrotation Yrotation Zrotation
											End Site
											{
												OFFSET 0 0 0
											}
										}
									}
								}
							}
						}
						JOINT RightShoulder_virtual
						{
							OFFSET 0.000000 0.000000 0.000000
							CHANNELS 3 Xrotation Yrotation Zrotation
							JOINT RightShoulder
							{
								OFFSET -6.197800 13.665199 -4.064700
								CHANNELS 3 Xrotation Yrotation Zrotation
								JOINT RightArm
								{
									OFFSET -7.778100 -0.187103 -1.709300
									CHANNELS 3 Xrotation Yrotation Zrotation
									JOINT RightForeArm
									{
										OFFSET -22.049376 0.000000 0.000000
										CHANNELS 3 Xrotation Yrotation Zrotation
										JOINT RightHand
										{
											OFFSET -23.009392 0.000000 0.000000
											CHANNELS 3 Xrotation Yrotation Zrotation
											End Site
											{
												OFFSET 0 0 0
											}
										}
									}
								}
							}
						}
					}
				}
			}
		}
	}
}
MOTION
Frames: 11
Frame Time: 0.03333333
19.723381 76.723114 4.045452 0.000000 0.000000 0.000000 154.123683 -63.988593 159.914673 -59.552522 43.340976 54.561071 36.296670 -10.916630 -4.609619 7.781827 7.545301 0.491500 0.000000 0.000000 0.000000 154.123683 -63.988593 159.914673 -43.656319 -14.622057 -27.011177 43.553285 -5.695413 5.171139 -10.914303 -2.764852 8.193100 0.000000 0.000000 0.000000 154.123683 -63.988593 159.914673 0.000000 0.000000 0.000000 10.367176 -2.905843 2.068386 5.441882 -1.990671 -3.512882 0.000000 0.000000 0.000000 -3.218477 -5.241817 -2.484907 6.043357 13.386863 -0.965028 0.000000 0.000000 0.000000 -3.218477 -5.241817 -2.484907 -1.837973 -14.467497 -4.296790 -24.431884 -9.271233 -47.099233 -14.226259 -27.309265 -17.570315 0.000000 0.000000 0.000000 -3.218477 -5.241817 -2.484907 -5.499244 24.268033 2.019079 -13.674993 -20.288525 57.835153 13.715965 34.549453 -4.170622 0.000000 0.000000 0.000000 
19.791655 76.675789 3.516527 0.000000 0.000000 0.000000 154.814734 -62.602953 160.702207 -61.039488 42.808040 55.803301 36.518125 -12.718680 -4.353773 9.293522 6.800604 2.188519 0.000000 0.000000 0.000000 154.814734 -62.602953 160.702207 -44.163443 -14.425146 -26.307280 44.068876 -5.352576 5.264200 -11.509092 -2.180347 7.539065 0.000000 0.000000 0.000000 154.814734 -62.602953 160.702207 0.000000 0.000000 0.000000 10.477485 -2.885179 2.052219 5.299430 -1.863426 -3.688208 0.000000 0.000000 0.000000 -3.740320 -4.710138 -2.529078 6.087835 13.825677 -1.303472 0.000000 0.000000 0.000000 -3.740320 -4.710138 -2.529078 -1.833827 -14.445314 -4.259438 -24.484058 -9.447710 -47.266767 -14.703176 -28.284795 -17.623235 0.000000 0.000000 0.000000 -3.740320 -4.710138 -2.529078 -5.518097 24.192595 2.050981 -13.471660 -20.142004 57.616621 14.645631 34.292522 -4.668572 0.000000 0.000000 0.000000 
19.835482 76.622650 3.002022 0.000000 0.000000 0.000000 155.441554 -61.285327 161.449976 -62.294494 42.258070 56.770094 36.603172 -14.348049 -4.082857 10.662996 6.099564 3.794684 0.000000 0.000000 0.000000 155.441554 -61.285327 161.449976 -44.608932 -14.213623 -25.641908 44.588844 -5.037886 5.316720 -12.103572 -1.628734 6.962646 0.000000 0.000000 0.000000 155.441554 -61.285327 161.449976 0.000001 -0.000001 0.000000 10.538138 -2.851979 2.020482 5.170769 -1.727745 -3.885300 0.000000 0.000000 0.000000 -4.258839 -4.169627 -2.589061 6.369392 14.108980 -1.231388 0.000000 0.000000 0.000000 -4.258839 -4.169627 -2.589061 -1.831041 -14.578224 -4.183432 -24.473707 -9.331615 -47.461164 -15.137525 -29.354855 -17.695186 0.000000 0.000000 0.000000 -4.258839 -4.169627 -2.589061 -5.543633 24.107508 2.123105 -13.173073 -20.156868 57.392317 15.493922 34.171020 -5.133746 0.000000 0.000000 0.000000 
19.864021 76.560722 2.439356 0.000000 0.000000 0.000000 155.992177 -60.007078 162.188415 -63.227307 41.760746 57.393547 36.406551 -15.744962 -3.827209 11.885355 5.380248 5.189824 0.000000 0.000000 0.000000 155.992177 -60.007078 162.188415 -45.040443 -13.972630 -24.999520 45.190536 -4.750304 5.319290 -12.774638 -1.097948 6.430484 0.000000 0.000000 0.000000 155.992177 -60.007078 162.188415 0.000000 0.000000 0.000000 10.561644 -2.814836 1.979028 5.077499 -1.603212 -4.097632 0.000000 0.000000 0.000000 -4.749400 -3.643003 -2.662464 6.469089 14.668543 -1.949853 0.000000 0.000000 0.000000 -4.749400 -3.643003 -2.662464 -1.822005 -14.611907 -4.119293 -24.396503 -9.365111 -47.588011 -15.736327 -30.089948 -17.677870 0.000000 0.000000 0.000000 -4.749400 -3.643003 -2.662464 -5.569919 24.018606 2.202745 -12.836179 -20.262258 57.156433 16.241531 34.139621 -5.554860 0.000000 0.000000 0.000000 
19.853636 76.496361 1.897392 0.000000 0.000000 0.000000 156.495603 -58.816152 162.904574 -63.936158 41.274311 57.756606 36.084818 -16.959274 -3.597801 12.915345 4.656148 6.467385 0.000000 0.000000 0.000000 156.495603 -58.816152 162.904574 -45.393857 -13.714893 -24.415724 45.783045 -4.492069 5.283115 -13.441572 -0.611036 5.990175 0.000000 0.000000 0.000000 156.495603 -58.816152 162.904574 0.000001 -0.000001 0.000001 10.575882 -2.796952 1.937379 5.035976 -1.495783 -4.316931 0.000000 0.000000 0.000000 -5.195327 -3.142256 -2.749172 6.328189 15.254727 -2.740313 0.000000 0.000000 0.000000 -5.195327 -3.142256 -2.749172 -1.812261 -14.622943 -4.069559 -24.236674 -9.343732 -47.660251 -16.237086 -30.888824 -17.606681 0.000000 0.000000 0.000000 -5.195327 -3.142256 -2.749172 -5.574963 23.957891 2.204162 -12.495535 -20.437459 56.950964 16.891056 34.094740 -5.909307 0.000000 0.000000 0.000000 
19.793648 76.451668 1.436197 0.000000 0.000000 0.000000 156.984931 -57.693945 163.594096 -64.319618 40.748560 57.824744 35.686888 -17.921441 -3.415697 13.721456 4.090908 7.530666 0.000000 0.000000 0.000000 156.984931 -57.693945 163.594096 -45.632057 -13.481847 -23.908753 46.223076 -4.229654 5.230164 -14.002318 -0.148164 5.641143 0.000000 0.000000 0.000000 156.984931 -57.693945 163.594096 0.000002 0.000001 -0.000000 10.597506 -2.797826 1.893693 5.040227 -1.410214 -4.541929 0.000000 0.000000 0.000000 -5.600355 -2.671738 -2.845724 6.274321 15.581861 -2.810552 0.000000 0.000000 0.000000 -5.600355 -2.671738 -2.845724 -1.827871 -14.708454 -4.103370 -23.999886 -9.023764 -47.692335 -16.439712 -32.034216 -17.488028 0.000000 0.000000 0.000000 -5.600355 -2.671738 -2.845724 -5.560454 23.921599 2.133793 -12.147548 -20.685764 56.766122 17.444320 34.055562 -6.200097 0.000000 0.000000 0.000000 
19.708300 76.412674 0.992270 0.000000 0.000000 0.000000 157.420848 -56.628859 164.233429 -64.344200 40.136719 57.572375 35.150308 -18.609289 -3.295380 14.372904 3.697775 8.266820 0.000000 0.000000 0.000000 157.420848 -56.628859 164.233429 -45.820713 -13.279882 -23.460785 46.618520 -3.953236 5.177076 -14.546300 0.299216 5.329348 0.000000 0.000000 0.000000 157.420848 -56.628859 164.233429 0.000000 0.000001 0.000000 10.620738 -2.806969 1.843871 5.070107 -1.352513 -4.773048 0.000000 0.000000 0.000000 -5.980873 -2.234009 -2.946734 6.285866 15.993668 -3.185414 0.000000 0.000000 0.000000 -5.980873 -2.234009 -2.946734 -1.836068 -14.771047 -4.126702 -23.657465 -8.623819 -47.644282 -16.730231 -33.099448 -17.385721 0.000000 0.000000 0.000000 -5.980873 -2.234009 -2.946734 -5.576881 24.223650 2.107775 -11.762261 -21.337630 56.443427 17.883652 34.147548 -6.452422 0.000000 0.000000 0.000000 
19.564121 76.376434 0.565031 0.000000 0.000000 0.000000 157.798967 -55.638407 164.800853 -64.101066 39.437034 57.071589 34.549361 -19.059779 -3.230930 14.815123 3.419460 8.712564 0.000000 0.000000 0.000000 157.798967 -55.638407 164.800853 -45.929272 -13.100214 -23.069208 46.973239 -3.675701 5.116347 -15.091074 0.709877 5.093239 0.000000 0.000000 0.000000 157.798967 -55.638407 164.800853 0.000000 0.000001 0.000000 10.636208 -2.819031 1.783033 5.106894 -1.309871 -5.012068 0.000000 0.000000 0.000000 -6.354616 -1.815758 -3.053546 6.289966 16.431154 -3.692618 0.000000 0.000000 0.000000 -6.354616 -1.815758 -3.053546 -1.834974 -14.838492 -4.138143 -23.186621 -8.118601 -47.529555 -17.069855 -34.052536 -17.295796 0.000000 0.000000 0.000000 -6.354616 -1.815758 -3.053546 -5.564481 24.161861 2.036930 -11.309836 -21.742464 56.222600 18.191528 34.274388 -6.642627 0.000000 0.000000 0.000000 
19.335730 76.355469 0.151150 0.000000 0.000000 0.000000 158.137772 -54.726109 165.313596 -63.685476 37.907546 55.849555 35.027604 -19.707830 -3.173272 13.601516 2.809822 9.768962 0.000000 0.000000 0.000000 158.137772 -54.726109 165.313596 -45.900613 -12.917459 -22.716989 47.242407 -3.421332 5.037178 -15.629658 1.074369 4.963270 0.000000 0.000000 0.000000 158.137772 -54.726109 165.313596 0.000000 -0.000002 0.000000 10.648076 -2.836565 1.705326 5.138193 -1.259578 -5.254245 0.000000 0.000000 0.000000 -6.732698 -1.398908 -3.160236 6.274765 16.771137 -3.993233 0.000000 0.000000 0.000000 -6.732698 -1.398908 -3.160236 -1.832728 -14.789352 -4.208923 -22.665692 -7.552056 -47.435937 -17.295516 -34.999419 -17.197204 0.000000 0.000000 0.000000 -6.732698 -1.398908 -3.160236 -5.536936 23.893974 1.940647 -10.823864 -21.975251 56.034845 18.322751 34.255335 -6.722182 0.000000 0.000000 0.000000 
19.025360 76.342026 -0.248590 0.000000 0.000000 0.000000 158.447903 -53.883970 165.792761 -63.028070 36.460492 54.453113 35.316521 -19.770307 -3.021151 11.888001 2.703884 9.590396 0.000000 0.000000 0.000000 158.447903 -53.883970 165.792761 -45.753381 -12.685543 -22.400592 47.459102 -3.202300 4.928930 -16.172232 1.386640 4.954423 0.000000 0.000000 0.000000 158.447903 -53.883970 165.792761 0.000000 0.000000 0.000000 10.653692 -2.828786 1.622290 5.159223 -1.188759 -5.491705 0.000000 0.000000 0.000000 -7.116278 -0.975472 -3.255048 6.337745 17.094867 -4.461803 0.000000 0.000000 0.000000 -7.116278 -0.975472 -3.255048 -1.864048 -14.902877 -4.396384 -22.016200 -6.677206 -47.278047 -17.732252 -36.101726 -17.267114 0.000000 0.000000 0.000000 -7.116278 -0.975472 -3.255048 -5.560110 24.080107 1.939097 -10.250434 -22.599887 55.639127 18.195269 34.178239 -6.692043 0.000000 0.000000 0.000000 
18.630373 76.306007 -0.621008 0.000000 0.000000 0.000000 158.713748 -53.132994 166.205728 -63.123488 35.531894 53.780951 35.403323 -19.519977 -2.884852 11.965578 3.120385 9.218624 0.000000 0.000000 0.000000 158.713748 -53.132994 166.205728 -45.551508 -12.408313 -22.164001 47.723847 -2.999074 4.815994 -16.767075 1.634881 5.066032 0.000000 0.000000 0.000000 158.713748 -53.132994 166.205728 0.000000 0.000000 0.000000 10.653843 -2.791451 1.556892 5.174504 -1.088172 -5.723043 0.000000 0.000000 0.000000 -7.500059 -0.536706 -3.335455 6.361448 17.424731 -5.186928 0.000000 0.000000 0.000000 -7.500059 -0.536706 -3.335455 -1.904514 -15.120000 -4.626756 -21.391726 -5.539419 -47.054177 -18.154539 -36.965937 -17.404685 0.000000 0.000000 0.000000 -7.500059 -0.536706 -3.335455 -5.529309 24.006479 1.835141 -9.578895 -22.918157 55.371278 17.759238 33.847156 -6.499381 0.000000 0.000000 0.000000 
